<svg width="24" height="22" viewBox="0 0 24 22" fill="none" xmlns="http://www.w3.org/2000/svg">
<path d="M11.0744 1.63299C11.3944 0.789003 12.6054 0.789003 12.9264 1.63299L14.9964 7.3669C15.0686 7.55369 15.1957 7.71418 15.3611 7.82719C15.5264 7.9402 15.7221 8.00042 15.9224 7.99989H21.0093C21.9493 7.99989 22.3593 9.16988 21.6203 9.74287L18.0003 12.9998C17.8382 13.1245 17.7197 13.2973 17.6618 13.4935C17.604 13.6896 17.6098 13.8991 17.6783 14.0918L19.0003 19.6947C19.3223 20.5947 18.2803 21.3677 17.4923 20.8137L12.5754 17.6937C12.407 17.5754 12.2062 17.5119 12.0004 17.5119C11.7946 17.5119 11.5938 17.5754 11.4254 17.6937L6.5085 20.8137C5.72151 21.3677 4.67852 20.5937 5.00052 19.6947L6.3225 14.0918C6.39108 13.8991 6.39686 13.6896 6.33901 13.4935C6.28116 13.2973 6.16266 13.1245 6.0005 12.9998L2.38056 9.74287C1.64057 9.16988 2.05256 7.99989 2.99055 7.99989H8.07747C8.27776 8.00056 8.47353 7.9404 8.63888 7.82737C8.80423 7.71434 8.93136 7.55377 9.00346 7.3669L11.0734 1.63299H11.0744Z" stroke="#F5AC07" stroke-width="2" stroke-linecap="round" stroke-linejoin="round"/>
</svg>
